<?xml version="1.0" encoding="utf-8"?>
<!-- Generator: Adobe Illustrator 23.0.3, SVG Export Plug-In . SVG Version: 6.00 Build 0)  -->
<svg version="1.1" id="Layer_1" xmlns="http://www.w3.org/2000/svg" xmlns:xlink="http://www.w3.org/1999/xlink" x="0px" y="0px"
	 viewBox="0 0 1920 1080" style="enable-background:new 0 0 1920 1080;" xml:space="preserve">
<style type="text/css">
	.st0{fill:url(#SVGID_1_);}
	.st1{fill:url(#SVGID_2_);}
	.st2{display:none;fill:#FFFFFF;}
	.st3{fill:#FFFFFF;stroke:#FFFFFF;stroke-miterlimit:10;}
</style>
<linearGradient id="SVGID_1_" gradientUnits="userSpaceOnUse" x1="1194.9569" y1="2623.9041" x2="810.0669" y2="3379.293" gradientTransform="matrix(1 0 0 -1 0 3632)">
	<stop  offset="1.675978e-02" style="stop-color:#015CFE"/>
	<stop  offset="0.2242" style="stop-color:#044FE6"/>
	<stop  offset="0.5408" style="stop-color:#083FC7"/>
	<stop  offset="0.8106" style="stop-color:#0A35B5"/>
	<stop  offset="1" style="stop-color:#0B31AE"/>
</linearGradient>
<rect x="-7.1" y="0" class="st0" width="1927.1" height="1080"/>
<linearGradient id="SVGID_2_" gradientUnits="userSpaceOnUse" x1="325.8342" y1="3009.9949" x2="860.6494" y2="3746.1047" gradientTransform="matrix(1 0 0 -1 0 3632)">
	<stop  offset="0" style="stop-color:#0168FE"/>
	<stop  offset="0.5056" style="stop-color:#1A3CB9"/>
	<stop  offset="1" style="stop-color:#0B31AE"/>
</linearGradient>
<path class="st1" d="M-7.1,1080H724c40.1,0,60.9-48.1,33.3-77.4c-50.8-54-91.3-105.3-85.8-156.2c23.5-218.2,414-184.8,626.4-482.3
	c25.5-35.8,44.1-76.1,55-118.8c20.3-79,23.9-153.2,3.7-210.1c-7.5-21.3-27.8-35.3-50.3-35.3L-7.1,0V1080z"/>
<path class="st2" d="M-7.1,1078.5h606c-36.4-81.9-72.3-153.1-54.9-232.9c49.3-226.9,630-217.4,752.5-564.4
	c39.9-112.9,15.2-204.3-30.8-279.7H-7.1V1078.5z"/>
<path class="st3" d="M-7.1,1080h339.9c111.5,0,201.9-88.6,206.9-200.2c0.5-11,1.9-22,4.3-33.3c49.3-227.5,630-218,752.5-566
	c0.6-1.6,1.1-3.1,1.6-4.7C1344,140.3,1242.4,0,1099.7,0L-7.1,0V1080z"/>
</svg>
